<?xml version="1.0" standalone="no"?>
<!DOCTYPE svg PUBLIC "-//W3C//DTD SVG 20010904//EN"
 "http://www.w3.org/TR/2001/REC-SVG-20010904/DTD/svg10.dtd">
<svg version="1.0" xmlns="http://www.w3.org/2000/svg"
 width="512.000000pt" height="512.000000pt" viewBox="0 0 512.000000 512.000000"
 preserveAspectRatio="xMidYMid meet">
<metadata>
Created by potrace 1.14, written by Peter Selinger 2001-2017
</metadata>
<g transform="translate(0.000000,512.000000) scale(0.100000,-0.100000)"
fill="#000000" stroke="none">
<path d="M0 2560 l0 -2560 2560 0 2560 0 0 2560 0 2560 -2560 0 -2560 0 0
-2560z m1010 1795 c0 -54 -3 -65 -17 -65 -9 0 -36 -10 -61 -21 -47 -23 -86
-74 -97 -126 l-7 -33 91 0 91 0 0 -155 0 -156 -152 3 -153 3 0 185 c1 169 3
189 23 234 44 97 104 150 205 181 75 24 77 23 77 -50z m440 1 l0 -64 -36 -6
c-61 -12 -144 -104 -144 -161 0 -12 16 -15 90 -15 l90 0 0 -155 0 -155 -150 0
-150 0 0 194 0 194 33 63 c38 75 104 129 181 152 86 26 86 26 86 -47z m1800
-1726 l0 -80 45 0 45 0 0 -60 0 -60 -45 0 -45 0 2 -177 3 -178 43 -3 42 -3 0
-55 0 -54 -88 0 c-139 0 -132 -13 -132 251 l0 219 -30 0 -30 0 0 60 0 60 30 0
30 0 0 80 0 80 65 0 65 0 0 -80z m-1000 -314 c0 -134 4 -237 9 -241 5 -3 35
-2 65 1 l56 7 0 233 0 234 65 0 65 0 0 -295 0 -295 -64 0 c-41 0 -66 4 -68 12
-3 9 -21 9 -76 0 -97 -16 -142 -15 -164 5 -17 15 -18 37 -18 295 l0 278 65 0
65 0 0 -234z m720 214 c19 -19 20 -33 20 -275 0 -321 17 -295 -190 -295 -147
0 -152 1 -175 25 l-25 24 0 246 0 246 25 24 c23 24 28 25 175 25 137 0 152 -2
170 -20z m800 0 c18 -18 20 -33 20 -147 0 -166 3 -163 -142 -163 l-108 0 0
-80 0 -80 60 0 60 0 0 45 0 45 65 0 65 0 0 -75 c0 -63 -3 -78 -21 -96 -19 -19
-30 -20 -176 -17 -139 3 -156 5 -169 22 -19 27 -21 514 -1 538 19 24 32 26
185 27 129 1 144 -1 162 -19z m465 -5 c22 -21 25 -33 25 -95 l0 -70 -65 0 -65
0 0 45 0 46 -57 -3 -58 -3 -3 -40 -2 -40 110 -63 c60 -35 117 -73 125 -85 11
-15 15 -48 15 -115 0 -85 -2 -95 -25 -117 -23 -24 -29 -25 -165 -25 -136 0
-142 1 -165 25 -22 21 -25 33 -25 100 l0 75 65 0 65 0 0 -50 0 -50 60 0 60 0
0 48 0 47 -110 64 c-61 34 -117 73 -125 84 -11 15 -15 48 -15 110 0 80 2 90
25 112 23 24 29 25 165 25 136 0 142 -1 165 -25z m-215 -1438 c0 -147 -3 -196
-15 -225 -40 -96 -108 -157 -205 -186 -81 -24 -80 -25 -80 48 l0 64 36 7 c64
12 143 104 144 168 0 4 -40 7 -90 7 l-90 0 0 153 0 152 150 0 150 0 0 -188z
m445 0 l0 -183 -33 -66 c-18 -37 -47 -79 -65 -94 -39 -33 -118 -70 -169 -79
l-38 -7 0 65 0 65 32 6 c71 14 123 68 143 149 l7 27 -91 0 -91 0 0 153 0 152
152 -2 153 -2 0 -184z"/>
<path d="M2735 2428 c-3 -8 -4 -90 -3 -183 l3 -170 63 -3 62 -3 -2 183 -3 183
-58 3 c-41 2 -59 -1 -62 -10z"/>
<path d="M3540 2380 l0 -70 60 0 60 0 0 70 0 70 -60 0 -60 0 0 -70z"/>
</g>
</svg>
